<svg width="24" height="24" viewBox="0 0 24 24" fill="none" xmlns="http://www.w3.org/2000/svg">
<path fill-rule="evenodd" clip-rule="evenodd" d="M0.918044 9.78356C-0.306015 11.0077 -0.306015 12.9923 0.918044 14.2163L2.59666 15.8949V18.2689C2.59666 20 4.00002 21.4034 5.73111 21.4034H8.10504L9.78361 23.0819C11.0077 24.306 12.9923 24.306 14.2164 23.0819L15.895 21.4034H18.2689C20 21.4034 21.4033 20 21.4033 18.2689V15.8949L23.082 14.2163C24.306 12.9923 24.306 11.0077 23.082 9.78356L21.4033 8.10499V5.7311C21.4033 4.00002 20 2.59665 18.2689 2.59665H15.895L14.2164 0.918081C12.9923 -0.306027 11.0077 -0.306027 9.78361 0.918081L8.10504 2.59665H5.73111C4.00002 2.59665 2.59666 4.00002 2.59666 5.7311V8.10499L0.918044 9.78356ZM6.8255 13.0188L9.35431 15.6031C9.7793 16.0231 10.4487 16.0231 10.8844 15.6031L17.1745 9.20695C17.5889 8.78702 17.5889 8.10862 17.1745 7.6887L17.1001 7.61332C16.6857 7.19329 16.0057 7.19329 15.5913 7.61332L12.8553 10.3915L10.1193 13.1696L8.40865 11.4251C7.99427 11.0052 7.31426 11.0052 6.89988 11.4251L6.8255 11.5005C6.41112 11.9205 6.41112 12.5988 6.8255 13.0188Z" fill="#7D8287"/>
<path d="M9.35431 15.6031L6.8255 13.0188C6.41112 12.5988 6.41112 11.9205 6.8255 11.5005L6.89988 11.4251C7.31426 11.0052 7.99427 11.0052 8.40865 11.4251L10.1193 13.1696L12.8553 10.3915L15.5913 7.61332C16.0057 7.19329 16.6857 7.19329 17.1001 7.61332L17.1745 7.6887C17.5889 8.10862 17.5889 8.78702 17.1745 9.20695L10.8844 15.6031C10.4487 16.0231 9.7793 16.0231 9.35431 15.6031Z" fill="white" fill-opacity="0.01"/>
</svg>
