<svg width="24" height="24" viewBox="0 0 24 24" fill="none" xmlns="http://www.w3.org/2000/svg">
<path d="M13.3609 1.03329C12.9326 -0.344429 11.0674 -0.344429 10.6391 1.03329L8.78725 6.98895C8.59568 7.60507 8.04624 8.02221 7.4263 8.02221H1.43372C0.0475023 8.02221 -0.528866 9.8759 0.592614 10.7274L2.72643 12.3474C3.77415 13.1429 5.09315 13.4934 6.39754 13.323L12.2196 12.5626C12.5978 12.5131 12.7778 13.0336 12.4568 13.2484L6.8365 17.0072C5.88544 17.6432 5.1813 18.5862 4.84159 19.6788L4.10874 22.0358C3.68037 23.4134 5.18931 24.5591 6.31079 23.7076L11.1589 20.0268C11.6604 19.646 12.3396 19.646 12.8411 20.0268L17.6892 23.7076C18.8107 24.5591 20.3196 23.4135 19.8913 22.0358L18.0394 16.08C17.8479 15.4639 18.0577 14.789 18.5593 14.4082L23.4074 10.7274C24.5289 9.8759 23.9525 8.02221 22.5663 8.02221H16.5737C15.9538 8.02221 15.4043 7.60507 15.2128 6.98895L13.3609 1.03329Z" fill="#A3B18A"/>
</svg>
